<svg width="19" height="21" viewBox="0 0 19 21" fill="none" xmlns="http://www.w3.org/2000/svg">
<path d="M12.2022 14.341L11.9228 14.5176L11.9227 14.8481L11.9223 16.5199H7.36223L7.36235 14.8487L7.36238 14.518L7.08277 14.3414C5.73511 13.4902 4.84219 11.9891 4.84219 10.2799C4.84219 7.62892 6.99122 5.47988 9.64219 5.47988C12.2932 5.47988 14.4422 7.62892 14.4422 10.2799C14.4422 11.9888 13.5495 13.4897 12.2022 14.341Z" stroke="#363840" stroke-width="1.2"/>
<path d="M3.88419 4.87996L3.42147 4.53694" stroke="#363840" stroke-width="1.2" stroke-linecap="round"/>
<path d="M15.0691 4.90417L15.4835 4.50405" stroke="#363840" stroke-width="1.2" stroke-linecap="round"/>
<circle cx="9.60234" cy="11" r="1.2" fill="#363840"/>
<path d="M12.0039 17.9999V18.9999H7.00391V17.9999H12.0039Z" fill="#363840"/>
<path d="M9.64347 2.576V2" stroke="#363840" stroke-width="1.2" stroke-linecap="round"/>
<path d="M1.57991 9.48801H1.00391" stroke="#363840" stroke-width="1.2" stroke-linecap="round"/>
<path d="M17.707 9.48801H18.283" stroke="#363840" stroke-width="1.2" stroke-linecap="round"/>
<path d="M9.64516 11.36V16.9234" stroke="#363840" stroke-width="1.2"/>
</svg>
