<svg width="21" height="20" viewBox="0 0 21 20" fill="none" xmlns="http://www.w3.org/2000/svg">
<path d="M1.84343 10.4359C1.69596 10.272 1.56879 10.125 1.4634 10C1.56879 9.87504 1.69596 9.72803 1.84343 9.5641C2.33158 9.02148 3.03752 8.29859 3.90756 7.57743C5.6689 6.11746 7.99968 4.75 10.5 4.75C13.0003 4.75 15.3311 6.11746 17.0924 7.57743C17.9625 8.29859 18.6684 9.02148 19.1566 9.5641C19.304 9.72803 19.4312 9.87504 19.5366 10C19.4312 10.125 19.304 10.272 19.1566 10.4359C18.6684 10.9785 17.9625 11.7014 17.0924 12.4226C15.3311 13.8825 13.0003 15.25 10.5 15.25C7.99968 15.25 5.6689 13.8825 3.90756 12.4226C3.03752 11.7014 2.33158 10.9785 1.84343 10.4359Z" stroke="#4672FF" stroke-width="1.5"/>
<circle cx="10.5" cy="10" r="2.25" stroke="#4672FF" stroke-width="1.5"/>
</svg>
